<?xml version="1.0" encoding="utf-8"?>
<!-- Generator: Adobe Illustrator 15.0.2, SVG Export Plug-In . SVG Version: 6.00 Build 0)  -->
<!DOCTYPE svg PUBLIC "-//W3C//DTD SVG 1.1//EN" "http://www.w3.org/Graphics/SVG/1.1/DTD/svg11.dtd">
<svg version="1.1" id="Layer_1" xmlns="http://www.w3.org/2000/svg" xmlns:xlink="http://www.w3.org/1999/xlink" x="0px" y="0px"
	 width="1822.011px" height="500px" viewBox="0 0 1822.011 500" enable-background="new 0 0 1822.011 500" xml:space="preserve">
<rect fill="#FFFFFF" width="477.842" height="500"/>
<path fill="#000000" d="M402.523,107.212c-11.617-38.238-157.312-38.722-163.601-38.722c-6.295,0-152.469,0.484-163.603,38.722
	h-0.968v193.611l0,0v96.805l3.873,2.904c1.937,1.451,44.53,30.978,160.698,30.978c116.165,0,158.759-29.526,160.694-30.978
	l3.873-2.904v-96.805h-3.873h3.873V107.212H402.523z M323.625,405.856l60.504-60.986v13.551l-44.043,44.048
	C334.76,403.438,329.436,404.405,323.625,405.856z M251.506,412.148l51.793-51.79c4.354-0.482,8.711-0.968,12.582-1.936
	l-52.758,53.243C259.252,411.663,255.378,412.148,251.506,412.148z M188.581,409.729l46.469-46.465c1.451,0,2.901,0,4.353,0
	c3.393,0,6.296,0,9.199,0l-47.434,47.434C196.812,410.697,192.455,410.212,188.581,409.729z M131.951,401.016l41.144-41.144
	c3.871,0.484,7.743,0.97,12.099,1.453l-42.111,42.109C139.211,402.469,135.338,401.5,131.951,401.016z M104.362,392.304
	l37.753-37.751c3.873,0.965,8.229,1.934,13.069,2.901L115.98,396.66C111.622,394.724,107.749,393.272,104.362,392.304z
	 M330.889,271.299c-25.658,14.036-55.664,25.168-84.709,19.844v-70.183c0-2.419,2.422-4.84,4.842-4.84h75.023
	c2.422,0,4.842,2.421,4.842,4.84v50.339H330.889z M226.819,285.335c-5.807-2.904-12.099-6.775-17.423-11.617l17.423-17.425V285.335z
	 M214.235,241.288l-18.876,18.878c-33.881-33.399-60.502-41.143-78.896-40.659l37.755-37.753c1.451-1.453,2.902-1.453,3.388-1.453
	c0.968,0,2.421,0,3.387,1.453l53.243,53.242C216.172,235.964,216.172,239.352,214.235,241.288z M93.714,333.255
	c2.901,1.934,5.808,4.354,9.196,6.292l-9.196,9.196V333.255z M93.714,369.07L93.714,369.07l23.231-23.234
	c2.907,1.453,6.294,2.422,9.682,3.873l-32.913,32.914V369.07z M204.073,362.778c3.387,0,6.775,0.485,10.647,0.485l-43.562,43.561
	c-0.484,0.485-0.484,0.485-0.484,0.969c-3.388-0.483-6.775-0.969-9.682-1.453L204.073,362.778z M269.414,362.778
	c3.873,0,7.746-0.485,11.619-0.485l-49.856,49.373l0,0c-3.873,0-7.26,0-10.648,0L269.414,362.778z M342.988,352.13
	c7.744-2.421,14.52-4.841,20.811-7.26l-62.439,61.954c-0.482,0.485-0.967,1.451-1.453,1.937c-4.838,0.483-10.162,0.968-15.486,1.451
	L342.988,352.13z M384.129,233.06c-6.291,5.808-18.393,15.973-33.881,26.622v-38.723c0-13.552-10.648-24.201-24.203-24.201h-75.023
	c-12.584,0-23.232,10.165-24.202,22.749l-51.79-51.791c-4.356-4.355-10.647-7.259-16.94-7.259c-6.294,0-12.583,2.42-16.941,7.259
	l-47.434,46.951v-79.864c42.595,20.813,139.884,20.813,145.208,20.813c5.323,0,102.614-0.484,145.206-20.813V233.06z
	 M238.923,87.852c87.122,0,138.429,15.004,144.724,24.201c-6.295,9.196-58.084,24.201-144.724,24.201
	c-86.642,0-138.435-15.004-144.724-24.201C100.488,102.856,151.795,87.852,238.923,87.852z M369.125,393.755l15.004-15.005v8.229
	C381.225,388.917,375.9,391.336,369.125,393.755z"/>
<g>
	<path fill="#FFFFFF" d="M627.427,91.056v133.288h-26.612V91.056h-47.813V66.699h122.237v24.357H627.427z"/>
	<path fill="#FFFFFF" d="M824.988,202.58c-15.938,15.562-35.634,23.342-59.088,23.342c-23.455,0-43.154-7.781-59.089-23.342
		c-15.938-15.562-23.906-34.957-23.906-58.187s7.968-42.625,23.906-58.187c15.935-15.562,35.634-23.342,59.089-23.342
		c23.454,0,43.149,7.781,59.088,23.342c15.936,15.562,23.906,34.957,23.906,58.187S840.924,187.019,824.988,202.58z M805.48,103.911
		c-10.752-11.125-23.945-16.689-39.58-16.689c-15.64,0-28.833,5.564-39.581,16.689c-10.751,11.128-16.125,24.622-16.125,40.482
		c0,15.865,5.374,29.358,16.125,40.482c10.748,11.128,23.941,16.689,39.581,16.689c15.635,0,28.828-5.561,39.58-16.689
		c10.748-11.125,16.125-24.618,16.125-40.482C821.605,128.533,816.229,115.04,805.48,103.911z"/>
	<path fill="#FFFFFF" d="M982.182,80.456c10.974,9.173,16.464,23.307,16.464,42.399c0,19.096-5.604,33.079-16.803,41.949
		c-11.202,8.873-28.381,13.306-51.533,13.306h-27.966v46.233h-26.612V66.699h54.127C953.765,66.699,971.204,71.287,982.182,80.456z
		 M963.35,145.521c5.335-5.638,8.007-13.905,8.007-24.808c0-10.899-3.383-18.606-10.149-23.117
		c-6.766-4.511-17.365-6.766-31.8-6.766h-27.063v63.148h30.897C947.975,153.979,958.011,151.16,963.35,145.521z"/>
	<path fill="#FFFFFF" d="M1125.951,87.448c-7.746,0-14.096,1.579-19.058,4.736c-4.962,3.158-7.442,7.933-7.442,14.321
		c0,6.392,2.48,11.276,7.442,14.659c4.962,3.383,15.522,7.03,31.687,10.938c16.161,3.911,28.34,9.398,36.536,16.463
		c8.192,7.069,12.291,17.479,12.291,31.236s-5.188,24.921-15.562,33.491c-10.374,8.57-23.983,12.855-40.82,12.855
		c-24.66,0-46.537-8.493-65.629-25.485l16.688-20.072c15.936,13.834,32.477,20.749,49.617,20.749c8.569,0,15.371-1.839,20.41-5.525
		c5.035-3.683,7.555-8.57,7.555-14.66s-2.368-10.825-7.104-14.208c-4.736-3.383-12.895-6.463-24.471-9.247
		c-11.579-2.78-20.375-5.335-26.387-7.668c-6.015-2.329-11.354-5.374-16.013-9.134c-9.324-7.065-13.982-17.891-13.982-32.476
		c0-14.582,5.3-25.823,15.899-33.717c10.601-7.894,23.716-11.84,39.355-11.84c10.071,0,20.072,1.656,29.995,4.962
		c9.923,3.309,18.493,7.971,25.71,13.983l-14.208,20.072c-4.662-4.208-10.977-7.668-18.944-10.374
		C1141.548,88.801,1133.692,87.448,1125.951,87.448z"/>
	<path fill="#FFFFFF" d="M1213.566,224.344V66.699h26.612v68.335h78.259V66.699h26.612v157.645h-26.612v-64.501h-78.259v64.501
		H1213.566z"/>
	<path fill="#FFFFFF" d="M1492.77,66.699v25.034h-84.123v41.723h75.553v23.681h-75.553v42.174h86.829v25.034h-113.441V66.699
		H1492.77z"/>
	<path fill="#FFFFFF" d="M1522.763,224.344V66.699h26.612v132.385h71.944v25.259H1522.763z"/>
	<path fill="#FFFFFF" d="M1670.258,91.507v43.301h69.914v24.583h-69.914v64.952h-26.612V66.699h105.097l-0.226,24.808H1670.258z"/>
	<path fill="#FFFFFF" d="M639.831,410.623c9.169,0,17.063-1.54,23.681-4.623c6.614-3.08,13.531-8.006,20.748-14.772l17.141,17.592
		c-16.689,18.493-36.952,27.74-60.78,27.74c-23.832,0-43.604-7.668-59.314-23.005c-15.713-15.336-23.567-34.731-23.567-58.186
		c0-23.455,8.006-42.999,24.019-58.638c16.013-15.636,36.232-23.455,60.668-23.455c24.431,0,44.841,9.021,61.23,27.063
		l-16.914,18.493c-7.521-7.217-14.624-12.253-21.313-15.11c-6.692-2.854-14.547-4.285-23.568-4.285
		c-15.938,0-29.318,5.152-40.144,15.448c-10.826,10.301-16.238,23.455-16.238,39.468s5.374,29.396,16.125,40.145
		C612.352,405.249,625.094,410.623,639.831,410.623z"/>
	<path fill="#FFFFFF" d="M852.954,328.306c0,26.013-11.354,42.399-34.055,49.165l41.271,57.284h-33.829l-37.664-52.999h-34.957
		v52.999h-26.612V277.11h58.638c24.055,0,41.272,4.06,51.646,12.179S852.954,310.414,852.954,328.306z M817.546,350.633
		c5.413-4.659,8.119-12.14,8.119-22.44c0-10.297-2.784-17.365-8.345-21.199c-5.564-3.834-15.487-5.751-29.77-5.751h-33.83v56.382
		h33.153C801.907,357.624,812.133,355.295,817.546,350.633z"/>
	<path fill="#FFFFFF" d="M906.855,398.896l-15.787,35.859h-28.417l69.463-157.645h28.417l69.463,157.645h-28.417l-15.787-35.859
		H906.855z M974.965,374.313l-28.643-64.953l-28.642,64.953H974.965z"/>
	<path fill="#FFFFFF" d="M1071.714,301.918v43.302h69.914v24.583h-69.914v64.952h-26.612V277.11h105.097l-0.226,24.808H1071.714z"/>
	<path fill="#FFFFFF" d="M1234.093,301.467v133.288h-26.612V301.467h-47.813V277.11h122.237v24.356H1234.093z"/>
</g>
</svg>
